<svg xmlns="http://www.w3.org/2000/svg" xmlns:xlink="http://www.w3.org/1999/xlink" viewBox="0 0 37.99 37.99"><defs><style>.cls-1{fill:url(#radial-gradient);}.cls-2{fill:url(#linear-gradient);}.cls-3{fill:url(#linear-gradient-2);}.cls-4{fill:url(#linear-gradient-3);}.cls-5{fill:url(#linear-gradient-4);}</style><radialGradient id="radial-gradient" cx="18.95" cy="19" fx="10.622747727043073" fy="5.680770320182297" r="18.67" gradientUnits="userSpaceOnUse"><stop offset="0" stop-color="#fff"/><stop offset="0.39" stop-color="#fdfdfe"/><stop offset="0.53" stop-color="#f6f7fa"/><stop offset="0.63" stop-color="#ebedf3"/><stop offset="0.71" stop-color="#dadde8"/><stop offset="0.78" stop-color="#c4c9db"/><stop offset="0.84" stop-color="#a8b1cb"/><stop offset="0.9" stop-color="#8894b7"/><stop offset="0.95" stop-color="#6373a1"/><stop offset="1" stop-color="#3a4e89"/><stop offset="1" stop-color="#364a86"/></radialGradient><linearGradient id="linear-gradient" x1="10.42" y1="18.69" x2="35.3" y2="18.69" gradientUnits="userSpaceOnUse"><stop offset="0" stop-color="#364a86"/><stop offset="0.01" stop-color="#41477f"/><stop offset="0.05" stop-color="#633f69"/><stop offset="0.1" stop-color="#803757"/><stop offset="0.15" stop-color="#983147"/><stop offset="0.21" stop-color="#aa2d3b"/><stop offset="0.28" stop-color="#b72933"/><stop offset="0.37" stop-color="#bf282e"/><stop offset="0.56" stop-color="#c1272d"/><stop offset="0.63" stop-color="#bd2830"/><stop offset="0.71" stop-color="#b12b37"/><stop offset="0.78" stop-color="#9d3044"/><stop offset="0.86" stop-color="#803756"/><stop offset="0.93" stop-color="#5c406d"/><stop offset="1" stop-color="#364a86"/></linearGradient><linearGradient id="linear-gradient-2" x1="7.85" y1="18.73" x2="33.54" y2="18.73" gradientUnits="userSpaceOnUse"><stop offset="0" stop-color="#364a86"/><stop offset="0.02" stop-color="#36577f"/><stop offset="0.07" stop-color="#37746e"/><stop offset="0.12" stop-color="#388c61"/><stop offset="0.19" stop-color="#389e57"/><stop offset="0.26" stop-color="#39ab4f"/><stop offset="0.36" stop-color="#39b34b"/><stop offset="0.56" stop-color="#39b54a"/><stop offset="0.65" stop-color="#39b14c"/><stop offset="0.73" stop-color="#39a652"/><stop offset="0.82" stop-color="#38935d"/><stop offset="0.9" stop-color="#37796c"/><stop offset="0.97" stop-color="#36577f"/><stop offset="1" stop-color="#364a86"/></linearGradient><linearGradient id="linear-gradient-3" x1="7.92" y1="18.73" x2="30.25" y2="18.73" gradientUnits="userSpaceOnUse"><stop offset="0" stop-color="#364a86"/><stop offset="0.01" stop-color="#344780"/><stop offset="0.05" stop-color="#26345e"/><stop offset="0.1" stop-color="#1a2441"/><stop offset="0.15" stop-color="#111729"/><stop offset="0.21" stop-color="#090c17"/><stop offset="0.28" stop-color="#04050a"/><stop offset="0.37" stop-color="#010102"/><stop offset="0.56"/><stop offset="0.62" stop-color="#030406"/><stop offset="0.7" stop-color="#0a0e19"/><stop offset="0.8" stop-color="#161e36"/><stop offset="0.91" stop-color="#26355f"/><stop offset="1" stop-color="#364a86"/></linearGradient><linearGradient id="linear-gradient-4" x1="2.7" y1="19.01" x2="24.8" y2="19.01" gradientUnits="userSpaceOnUse"><stop offset="0" stop-color="#364a86"/><stop offset="0.01" stop-color="#364e89"/><stop offset="0.06" stop-color="#326aa5"/><stop offset="0.11" stop-color="#2e82bb"/><stop offset="0.18" stop-color="#2c94cd"/><stop offset="0.25" stop-color="#2aa1d9"/><stop offset="0.35" stop-color="#29a9e0"/><stop offset="0.56" stop-color="#29abe2"/><stop offset="0.63" stop-color="#2aa5dc"/><stop offset="0.74" stop-color="#2c92cb"/><stop offset="0.86" stop-color="#3075af"/><stop offset="1" stop-color="#364c88"/><stop offset="1" stop-color="#364a86"/></linearGradient></defs><title>Asset 52</title><g id="Layer_2" data-name="Layer 2"><g id="Layer_1-2" data-name="Layer 1"><circle class="cls-1" cx="19" cy="19" r="18.67"/><path d="M19,.64A18.36,18.36,0,1,1,.64,19,18.38,18.38,0,0,1,19,.64M19,0A19,19,0,1,0,38,19,19,19,0,0,0,19,0Z"/><path class="cls-2" d="M11.07,21.69c2.85.45,6.15.65,8-1.63a26.51,26.51,0,0,0,2.87-3.24c.81-1.17,1.82-2.37,2.72-3.54a3.25,3.25,0,0,1,2.26-1.36,2.32,2.32,0,0,1,.78.07,1.92,1.92,0,0,1,.72.43,4.49,4.49,0,0,1,.76,1,12.81,12.81,0,0,1,.94,2.08l.81,2.1c.5,1.38.95,2.79,1.54,4.13s1,2.83,2.2,3.72A4.13,4.13,0,0,1,33,24c-.4-.64-.76-1.28-1.12-1.94A38.88,38.88,0,0,1,30,18l-.9-2a13.23,13.23,0,0,0-1-1.92,4,4,0,0,0-.57-.74.62.62,0,0,0-.22-.14,1.1,1.1,0,0,0-.32,0,2,2,0,0,0-1.38.93c-.92,1.16-1.83,2.22-2.74,3.46a23,23,0,0,1-3.16,3.23,6.82,6.82,0,0,1-2,1.32,6.58,6.58,0,0,1-2.3.42,12.92,12.92,0,0,1-2.25-.25A22,22,0,0,1,11.07,21.69Z"/><path class="cls-3" d="M8.49,21.22c2.94-.15,6.16.45,8.35-1.48a13.83,13.83,0,0,0,2.89-3.15l1.32-1.79A13.61,13.61,0,0,1,22.5,13a3.88,3.88,0,0,1,1.07-.8,2.22,2.22,0,0,1,1.48-.24,2.28,2.28,0,0,1,1.24.84,4.29,4.29,0,0,1,.37.5,4,4,0,0,1,.3.57c.32.71.57,1.4.84,2.12s.47,1.47.7,2.1c.57,1.32,1.16,2.76,1.68,4.1A8,8,0,0,0,31.3,24a11,11,0,0,0,1.59,1.53,8,8,0,0,1-3.27-3.09l-2.05-4c-.33-.74-.52-1.42-.82-2.09s-.57-1.36-.89-2c-.08-.15-.15-.29-.23-.41s-.2-.28-.29-.39a1.07,1.07,0,0,0-.57-.4,1,1,0,0,0-.66.16,3,3,0,0,0-.7.56,12.2,12.2,0,0,0-1.34,1.65l-1.36,1.78a13.69,13.69,0,0,1-3.29,3.24,7.34,7.34,0,0,1-2.14,1,6.63,6.63,0,0,1-2.33.21c-.75,0-1.49-.15-2.24-.24S9.23,21.35,8.49,21.22Z"/><path class="cls-4" d="M8.56,21.68a22.46,22.46,0,0,0,3-.76,5.09,5.09,0,0,0,2.34-1.69l0,0c1.39-1.49,2.42-3.43,3.85-5.12A10,10,0,0,1,19,12.85,3.51,3.51,0,0,1,20.75,12a2.44,2.44,0,0,1,2,.66,2.93,2.93,0,0,1,.62.71,7.47,7.47,0,0,1,.47.73,60,60,0,0,1,2.53,6A29.2,29.2,0,0,0,27.63,23a6.71,6.71,0,0,0,2,2.45,6.2,6.2,0,0,1-2.41-2.17,20.62,20.62,0,0,1-1.66-2.82c-1-1.93-1.76-4-2.79-5.74a4.76,4.76,0,0,0-.41-.62,2.16,2.16,0,0,0-.44-.5,1.21,1.21,0,0,0-1-.34,4.38,4.38,0,0,0-2.19,1.6c-1.4,1.54-2.51,3.41-4.2,4.94l0,0a5.3,5.3,0,0,1-2.86,1.62A15.25,15.25,0,0,1,8.56,21.68Z"/><path class="cls-5" d="M3.34,18.05a22.64,22.64,0,0,1,5.33-4.89,6.49,6.49,0,0,1,1.76-.77,3.52,3.52,0,0,1,2.08,0,3.93,3.93,0,0,1,1.72,1.15,10.56,10.56,0,0,1,1.13,1.53c1.25,2.12,2.18,4.25,3.55,6.14a14.5,14.5,0,0,0,5.24,4.54,11.74,11.74,0,0,1-3.3-1.47,13,13,0,0,1-2.74-2.45,43.74,43.74,0,0,1-3.84-6.08,4.8,4.8,0,0,0-2.15-2.21,3.9,3.9,0,0,0-3,.47A38.55,38.55,0,0,0,3.34,18.05Z"/></g></g></svg>