<?xml version="1.0" encoding="UTF-8"?>
<!DOCTYPE svg PUBLIC "-//W3C//DTD SVG 1.1//EN" "http://www.w3.org/Graphics/SVG/1.1/DTD/svg11.dtd">
<svg version="1.2" width="6.09mm" height="6.09mm" viewBox="0 0 609 609" preserveAspectRatio="xMidYMid" fill-rule="evenodd" stroke-width="28.222" stroke-linejoin="round" xmlns="http://www.w3.org/2000/svg" xmlns:ooo="http://xml.openoffice.org/svg/export" xmlns:xlink="http://www.w3.org/1999/xlink" xmlns:presentation="http://sun.com/xmlns/staroffice/presentation" xmlns:smil="http://www.w3.org/2001/SMIL20/" xmlns:anim="urn:oasis:names:tc:opendocument:xmlns:animation:1.0" xmlns:svg="urn:oasis:names:tc:opendocument:xmlns:svg-compatible:1.0" xml:space="preserve">
 <defs class="ClipPathGroup">
  <clipPath id="presentation_clip_path" clipPathUnits="userSpaceOnUse">
   <rect x="0" y="0" width="609" height="609"/>
  </clipPath>
  <clipPath id="presentation_clip_path_shrink" clipPathUnits="userSpaceOnUse">
   <rect x="0" y="0" width="608" height="608"/>
  </clipPath>
 </defs>
 <defs class="TextShapeIndex">
  <g ooo:slide="id1" ooo:id-list="id3 id4 id5 id6 id7 id8"/>
 </defs>
 <defs class="EmbeddedBulletChars">
  <g id="bullet-char-template-57356" transform="scale(0.00048828125,-0.00048828125)">
   <path d="M 580,1141 L 1163,571 580,0 -4,571 580,1141 Z"/>
  </g>
  <g id="bullet-char-template-57354" transform="scale(0.00048828125,-0.00048828125)">
   <path d="M 8,1128 L 1137,1128 1137,0 8,0 8,1128 Z"/>
  </g>
  <g id="bullet-char-template-10146" transform="scale(0.00048828125,-0.00048828125)">
   <path d="M 174,0 L 602,739 174,1481 1456,739 174,0 Z M 1358,739 L 309,1346 659,739 1358,739 Z"/>
  </g>
  <g id="bullet-char-template-10132" transform="scale(0.00048828125,-0.00048828125)">
   <path d="M 2015,739 L 1276,0 717,0 1260,543 174,543 174,936 1260,936 717,1481 1274,1481 2015,739 Z"/>
  </g>
  <g id="bullet-char-template-10007" transform="scale(0.00048828125,-0.00048828125)">
   <path d="M 0,-2 C -7,14 -16,27 -25,37 L 356,567 C 262,823 215,952 215,954 215,979 228,992 255,992 264,992 276,990 289,987 310,991 331,999 354,1012 L 381,999 492,748 772,1049 836,1024 860,1049 C 881,1039 901,1025 922,1006 886,937 835,863 770,784 769,783 710,716 594,584 L 774,223 C 774,196 753,168 711,139 L 727,119 C 717,90 699,76 672,76 641,76 570,178 457,381 L 164,-76 C 142,-110 111,-127 72,-127 30,-127 9,-110 8,-76 1,-67 -2,-52 -2,-32 -2,-23 -1,-13 0,-2 Z"/>
  </g>
  <g id="bullet-char-template-10004" transform="scale(0.00048828125,-0.00048828125)">
   <path d="M 285,-33 C 182,-33 111,30 74,156 52,228 41,333 41,471 41,549 55,616 82,672 116,743 169,778 240,778 293,778 328,747 346,684 L 369,508 C 377,444 397,411 428,410 L 1163,1116 C 1174,1127 1196,1133 1229,1133 1271,1133 1292,1118 1292,1087 L 1292,965 C 1292,929 1282,901 1262,881 L 442,47 C 390,-6 338,-33 285,-33 Z"/>
  </g>
  <g id="bullet-char-template-9679" transform="scale(0.00048828125,-0.00048828125)">
   <path d="M 813,0 C 632,0 489,54 383,161 276,268 223,411 223,592 223,773 276,916 383,1023 489,1130 632,1184 813,1184 992,1184 1136,1130 1245,1023 1353,916 1407,772 1407,592 1407,412 1353,268 1245,161 1136,54 992,0 813,0 Z"/>
  </g>
  <g id="bullet-char-template-8226" transform="scale(0.00048828125,-0.00048828125)">
   <path d="M 346,457 C 273,457 209,483 155,535 101,586 74,649 74,723 74,796 101,859 155,911 209,963 273,989 346,989 419,989 480,963 531,910 582,859 608,796 608,723 608,648 583,586 532,535 482,483 420,457 346,457 Z"/>
  </g>
  <g id="bullet-char-template-8211" transform="scale(0.00048828125,-0.00048828125)">
   <path d="M -4,459 L 1135,459 1135,606 -4,606 -4,459 Z"/>
  </g>
  <g id="bullet-char-template-61548" transform="scale(0.00048828125,-0.00048828125)">
   <path d="M 173,740 C 173,903 231,1043 346,1159 462,1274 601,1332 765,1332 928,1332 1067,1274 1183,1159 1299,1043 1357,903 1357,740 1357,577 1299,437 1183,322 1067,206 928,148 765,148 601,148 462,206 346,322 231,437 173,577 173,740 Z"/>
  </g>
 </defs>
 <g>
  <g id="id2" class="Master_Slide">
   <g id="bg-id2" class="Background"/>
   <g id="bo-id2" class="BackgroundObjects"/>
  </g>
 </g>
 <g class="SlideGroup">
  <g>
   <g id="container-id1">
    <g id="id1" class="Slide" clip-path="url(#presentation_clip_path)">
     <g class="Page">
      <g class="com.sun.star.drawing.LineShape">
       <g id="id3">
        <rect class="BoundingBox" stroke="none" fill="none" x="442" y="200" width="15" height="269"/>
        <path fill="none" stroke="#81d41a" stroke-width="14" stroke-linejoin="round" d="M 449,207 L 449,461"/>
       </g>
      </g>
      <g class="com.sun.star.drawing.LineShape">
       <g id="id4">
        <rect class="BoundingBox" stroke="none" fill="none" x="152" y="200" width="15" height="269"/>
        <path fill="none" stroke="#81d41a" stroke-width="14" stroke-linejoin="round" d="M 159,207 L 159,461"/>
       </g>
      </g>
      <g class="Graphic">
       <g id="id5">
        <rect class="BoundingBox" stroke="none" fill="none" x="52" y="11" width="216" height="216"/>
        <path fill="#000000" stroke="none" d="M 216,25 L 103,25 103,156 131,156 103,212 216,212 188,156 216,156 216,25 Z M 206,34 L 206,147 113,147 113,34 206,34 Z M 119,203 L 142,156 177,156 200,203 119,203 Z M 197,109 L 188,109 188,137 197,137 197,109 Z"/>
       </g>
      </g>
      <g class="Graphic">
       <g id="id6">
        <rect class="BoundingBox" stroke="none" fill="none" x="-4" y="364" width="327" height="327"/>
        <path fill="#000000" stroke="none" d="M 88,475 C 67,488 49,505 36,527 36,527 36,528 36,528 39,532 42,535 47,538 47,537 48,535 49,534 60,515 76,499 95,487 114,476 136,470 158,470 159,470 159,470 159,470 159,470 159,470 158,470 149,470 139,473 131,478 122,483 115,490 110,499 105,507 102,517 102,527 102,537 105,547 110,555 115,564 122,571 131,576 139,581 149,584 159,584 169,584 179,581 187,576 196,571 203,564 208,555 213,547 216,537 216,527 216,517 213,507 208,499 203,490 196,483 187,478 180,474 172,471 164,471 185,471 205,477 223,488 242,499 258,515 269,534 270,535 271,537 271,538 276,535 280,532 282,528 282,528 282,527 282,527 269,505 251,488 230,475 208,463 184,456 159,456 134,456 110,463 88,475 Z M 159,484 C 166,484 174,486 180,490 187,494 192,499 196,506 200,512 202,520 202,527 202,534 200,542 196,548 192,555 187,560 180,564 174,568 166,570 159,570 152,570 144,568 138,564 131,560 126,555 122,548 118,542 116,534 116,527 116,520 118,512 122,506 126,499 131,494 138,490 144,486 152,484 159,484 Z M 159,499 C 143,499 131,511 131,527 131,543 143,555 159,555 175,555 187,543 187,527 187,524 187,521 186,519 184,524 179,527 173,527 165,527 159,521 159,513 159,507 162,502 167,500 165,499 162,499 159,499 Z"/>
       </g>
      </g>
      <g class="Graphic">
       <g id="id7">
        <rect class="BoundingBox" stroke="none" fill="none" x="286" y="364" width="327" height="327"/>
        <path fill="#000000" stroke="none" d="M 378,475 C 357,488 339,505 326,527 326,527 326,528 326,528 329,532 332,535 337,538 337,537 338,535 339,534 350,515 366,499 385,487 404,476 426,470 448,470 449,470 449,470 449,470 449,470 449,470 448,470 439,470 429,473 421,478 412,483 405,490 400,499 395,507 392,517 392,527 392,537 395,547 400,555 405,564 412,571 421,576 429,581 439,584 449,584 459,584 469,581 477,576 486,571 493,564 498,555 503,547 506,537 506,527 506,517 503,507 498,499 493,490 486,483 477,478 470,474 462,471 454,471 475,471 495,477 513,488 532,499 548,515 559,534 560,535 561,537 561,538 566,535 570,532 572,528 572,528 572,527 572,527 559,505 541,488 520,475 498,463 474,456 449,456 424,456 400,463 378,475 Z M 449,484 C 456,484 464,486 470,490 477,494 482,499 486,506 490,512 492,520 492,527 492,534 490,542 486,548 482,555 477,560 470,564 464,568 456,570 449,570 442,570 434,568 428,564 421,560 416,555 412,548 408,542 406,534 406,527 406,520 408,512 412,506 416,499 421,494 428,490 434,486 442,484 449,484 Z M 449,499 C 433,499 421,511 421,527 421,543 433,555 449,555 465,555 477,543 477,527 477,524 477,521 476,519 474,524 469,527 463,527 455,527 449,521 449,513 449,507 452,502 457,500 455,499 452,499 449,499 Z"/>
       </g>
      </g>
      <g class="Graphic">
       <g id="id8">
        <rect class="BoundingBox" stroke="none" fill="none" x="343" y="11" width="216" height="216"/>
        <path fill="#000000" stroke="none" d="M 507,25 L 394,25 394,156 422,156 394,212 507,212 479,156 507,156 507,25 Z M 497,34 L 497,147 404,147 404,34 497,34 Z M 410,203 L 433,156 468,156 491,203 410,203 Z M 488,109 L 479,109 479,137 488,137 488,109 Z"/>
       </g>
      </g>
     </g>
    </g>
   </g>
  </g>
 </g>
</svg>