<?xml version="1.0" encoding="UTF-8"?>
<!DOCTYPE svg PUBLIC "-//W3C//DTD SVG 1.1//EN" "http://www.w3.org/Graphics/SVG/1.1/DTD/svg11.dtd">
<svg version="1.2" width="6.09mm" height="6.09mm" viewBox="0 0 609 609" preserveAspectRatio="xMidYMid" fill-rule="evenodd" stroke-width="28.222" stroke-linejoin="round" xmlns="http://www.w3.org/2000/svg" xmlns:ooo="http://xml.openoffice.org/svg/export" xmlns:xlink="http://www.w3.org/1999/xlink" xmlns:presentation="http://sun.com/xmlns/staroffice/presentation" xmlns:smil="http://www.w3.org/2001/SMIL20/" xmlns:anim="urn:oasis:names:tc:opendocument:xmlns:animation:1.0" xmlns:svg="urn:oasis:names:tc:opendocument:xmlns:svg-compatible:1.0" xml:space="preserve">
 <defs class="ClipPathGroup">
  <clipPath id="presentation_clip_path" clipPathUnits="userSpaceOnUse">
   <rect x="0" y="0" width="609" height="609"/>
  </clipPath>
  <clipPath id="presentation_clip_path_shrink" clipPathUnits="userSpaceOnUse">
   <rect x="0" y="0" width="608" height="608"/>
  </clipPath>
 </defs>
 <defs class="TextShapeIndex">
  <g ooo:slide="id1" ooo:id-list="id3 id4"/>
 </defs>
 <defs class="EmbeddedBulletChars">
  <g id="bullet-char-template-57356" transform="scale(0.00048828125,-0.00048828125)">
   <path d="M 580,1141 L 1163,571 580,0 -4,571 580,1141 Z"/>
  </g>
  <g id="bullet-char-template-57354" transform="scale(0.00048828125,-0.00048828125)">
   <path d="M 8,1128 L 1137,1128 1137,0 8,0 8,1128 Z"/>
  </g>
  <g id="bullet-char-template-10146" transform="scale(0.00048828125,-0.00048828125)">
   <path d="M 174,0 L 602,739 174,1481 1456,739 174,0 Z M 1358,739 L 309,1346 659,739 1358,739 Z"/>
  </g>
  <g id="bullet-char-template-10132" transform="scale(0.00048828125,-0.00048828125)">
   <path d="M 2015,739 L 1276,0 717,0 1260,543 174,543 174,936 1260,936 717,1481 1274,1481 2015,739 Z"/>
  </g>
  <g id="bullet-char-template-10007" transform="scale(0.00048828125,-0.00048828125)">
   <path d="M 0,-2 C -7,14 -16,27 -25,37 L 356,567 C 262,823 215,952 215,954 215,979 228,992 255,992 264,992 276,990 289,987 310,991 331,999 354,1012 L 381,999 492,748 772,1049 836,1024 860,1049 C 881,1039 901,1025 922,1006 886,937 835,863 770,784 769,783 710,716 594,584 L 774,223 C 774,196 753,168 711,139 L 727,119 C 717,90 699,76 672,76 641,76 570,178 457,381 L 164,-76 C 142,-110 111,-127 72,-127 30,-127 9,-110 8,-76 1,-67 -2,-52 -2,-32 -2,-23 -1,-13 0,-2 Z"/>
  </g>
  <g id="bullet-char-template-10004" transform="scale(0.00048828125,-0.00048828125)">
   <path d="M 285,-33 C 182,-33 111,30 74,156 52,228 41,333 41,471 41,549 55,616 82,672 116,743 169,778 240,778 293,778 328,747 346,684 L 369,508 C 377,444 397,411 428,410 L 1163,1116 C 1174,1127 1196,1133 1229,1133 1271,1133 1292,1118 1292,1087 L 1292,965 C 1292,929 1282,901 1262,881 L 442,47 C 390,-6 338,-33 285,-33 Z"/>
  </g>
  <g id="bullet-char-template-9679" transform="scale(0.00048828125,-0.00048828125)">
   <path d="M 813,0 C 632,0 489,54 383,161 276,268 223,411 223,592 223,773 276,916 383,1023 489,1130 632,1184 813,1184 992,1184 1136,1130 1245,1023 1353,916 1407,772 1407,592 1407,412 1353,268 1245,161 1136,54 992,0 813,0 Z"/>
  </g>
  <g id="bullet-char-template-8226" transform="scale(0.00048828125,-0.00048828125)">
   <path d="M 346,457 C 273,457 209,483 155,535 101,586 74,649 74,723 74,796 101,859 155,911 209,963 273,989 346,989 419,989 480,963 531,910 582,859 608,796 608,723 608,648 583,586 532,535 482,483 420,457 346,457 Z"/>
  </g>
  <g id="bullet-char-template-8211" transform="scale(0.00048828125,-0.00048828125)">
   <path d="M -4,459 L 1135,459 1135,606 -4,606 -4,459 Z"/>
  </g>
  <g id="bullet-char-template-61548" transform="scale(0.00048828125,-0.00048828125)">
   <path d="M 173,740 C 173,903 231,1043 346,1159 462,1274 601,1332 765,1332 928,1332 1067,1274 1183,1159 1299,1043 1357,903 1357,740 1357,577 1299,437 1183,322 1067,206 928,148 765,148 601,148 462,206 346,322 231,437 173,577 173,740 Z"/>
  </g>
 </defs>
 <g>
  <g id="id2" class="Master_Slide">
   <g id="bg-id2" class="Background"/>
   <g id="bo-id2" class="BackgroundObjects"/>
  </g>
 </g>
 <g class="SlideGroup">
  <g>
   <g id="container-id1">
    <g id="id1" class="Slide" clip-path="url(#presentation_clip_path)">
     <g class="Page">
      <g class="Graphic">
       <g id="id3">
        <rect class="BoundingBox" stroke="none" fill="none" x="0" y="0" width="609" height="609"/>
        <path fill="#000000" stroke="none" d="M 291,66 L 291,120 C 263,122 236,130 211,144 183,160 160,184 144,212 130,236 121,263 119,291 L 66,291 66,317 120,317 C 122,345 130,372 144,397 160,425 184,448 212,464 236,478 263,487 291,489 L 291,542 317,542 317,488 C 345,486 372,478 397,464 425,448 448,424 464,396 478,372 487,345 489,317 L 542,317 542,291 488,291 C 486,263 478,236 464,211 448,183 424,160 396,144 372,130 345,121 317,119 L 317,66 291,66 Z M 291,199 C 277,201 263,205 251,213 235,222 222,235 213,251 206,263 201,277 199,291 L 146,291 C 148,268 155,245 167,225 181,201 201,181 225,167 245,155 268,148 291,146 L 291,199 Z M 317,146 C 340,148 363,155 383,167 407,181 427,201 441,225 453,245 460,268 462,291 L 409,291 C 407,277 403,263 395,251 386,235 373,222 357,213 345,206 331,201 317,199 L 317,146 Z M 291,291 L 226,291 C 228,281 231,272 235,264 242,252 252,242 264,235 273,231 282,227 291,226 L 291,291 Z M 317,226 C 327,228 336,231 344,235 356,242 366,252 373,264 377,273 381,282 382,291 L 317,291 317,226 Z M 199,317 C 201,331 205,345 213,357 222,373 235,386 251,395 263,402 277,407 291,409 L 291,462 C 268,460 245,453 225,441 201,427 181,407 167,383 155,363 148,340 146,317 L 199,317 Z M 291,317 L 291,382 C 281,380 272,377 264,373 252,366 242,356 235,344 231,335 227,326 226,317 L 291,317 Z M 317,317 L 382,317 C 380,327 377,336 373,344 366,356 356,366 344,373 335,377 326,381 317,382 L 317,317 Z M 462,317 C 460,340 453,363 441,383 427,407 407,427 383,441 363,453 340,460 317,462 L 317,409 C 331,407 345,403 357,395 373,386 386,373 395,357 402,345 407,331 409,317 L 462,317 Z"/>
       </g>
      </g>
      <g class="Graphic">
       <g id="id4">
        <rect class="BoundingBox" stroke="none" fill="none" x="312" y="381" width="311" height="301"/>
        <path fill="#7202d4" stroke="none" d="M 400,483 C 379,495 362,511 350,531 350,531 350,532 350,532 352,536 356,539 360,541 361,540 361,539 362,538 373,520 388,505 406,495 425,484 445,479 466,479 467,479 467,479 467,479 467,479 467,479 466,479 457,479 448,481 440,486 432,490 425,497 420,505 416,513 413,522 413,531 413,540 416,549 420,557 425,565 432,572 440,576 448,581 458,583 467,583 476,583 486,581 494,576 502,572 509,565 514,557 518,549 521,540 521,531 521,522 518,513 514,505 509,497 502,490 494,486 487,482 479,480 472,479 491,480 511,485 528,495 546,505 561,520 572,538 573,539 573,540 574,541 578,539 582,536 584,532 584,532 584,531 584,531 572,511 555,495 534,483 514,472 491,466 467,466 443,466 420,472 400,483 Z M 467,492 C 474,492 481,494 487,497 493,501 498,505 502,511 506,517 507,524 507,531 507,538 506,545 502,551 498,557 493,561 487,565 481,568 474,570 467,570 460,570 453,568 447,565 441,561 436,557 432,551 428,545 427,538 427,531 427,524 428,517 432,511 436,505 441,501 447,497 453,494 460,492 467,492 Z M 467,505 C 452,505 440,517 440,531 440,545 452,557 467,557 482,557 494,545 494,531 494,528 493,526 493,523 491,528 486,531 480,531 473,531 467,525 467,518 467,513 470,508 475,506 472,505 470,505 467,505 Z"/>
       </g>
      </g>
     </g>
    </g>
   </g>
  </g>
 </g>
</svg>