<?xml version="1.0" encoding="UTF-8"?>
<!DOCTYPE svg PUBLIC "-//W3C//DTD SVG 1.1//EN" "http://www.w3.org/Graphics/SVG/1.1/DTD/svg11.dtd">
<svg version="1.2" width="20mm" height="20mm" viewBox="0 0 2000 2000" preserveAspectRatio="xMidYMid" fill-rule="evenodd" stroke-width="28.222" stroke-linejoin="round" xmlns="http://www.w3.org/2000/svg" xmlns:ooo="http://xml.openoffice.org/svg/export" xmlns:xlink="http://www.w3.org/1999/xlink" xmlns:presentation="http://sun.com/xmlns/staroffice/presentation" xmlns:smil="http://www.w3.org/2001/SMIL20/" xmlns:anim="urn:oasis:names:tc:opendocument:xmlns:animation:1.0" xmlns:svg="urn:oasis:names:tc:opendocument:xmlns:svg-compatible:1.0" xml:space="preserve">
 <defs class="ClipPathGroup">
  <clipPath id="presentation_clip_path" clipPathUnits="userSpaceOnUse">
   <rect x="0" y="0" width="2000" height="2000"/>
  </clipPath>
  <clipPath id="presentation_clip_path_shrink" clipPathUnits="userSpaceOnUse">
   <rect x="2" y="2" width="1996" height="1996"/>
  </clipPath>
 </defs>
 <defs class="TextShapeIndex">
  <g ooo:slide="id1" ooo:id-list="id3 id4 id5 id6 id7 id8 id9 id10 id11"/>
 </defs>
 <defs class="EmbeddedBulletChars">
  <g id="bullet-char-template-57356" transform="scale(0.00048828125,-0.00048828125)">
   <path d="M 580,1141 L 1163,571 580,0 -4,571 580,1141 Z"/>
  </g>
  <g id="bullet-char-template-57354" transform="scale(0.00048828125,-0.00048828125)">
   <path d="M 8,1128 L 1137,1128 1137,0 8,0 8,1128 Z"/>
  </g>
  <g id="bullet-char-template-10146" transform="scale(0.00048828125,-0.00048828125)">
   <path d="M 174,0 L 602,739 174,1481 1456,739 174,0 Z M 1358,739 L 309,1346 659,739 1358,739 Z"/>
  </g>
  <g id="bullet-char-template-10132" transform="scale(0.00048828125,-0.00048828125)">
   <path d="M 2015,739 L 1276,0 717,0 1260,543 174,543 174,936 1260,936 717,1481 1274,1481 2015,739 Z"/>
  </g>
  <g id="bullet-char-template-10007" transform="scale(0.00048828125,-0.00048828125)">
   <path d="M 0,-2 C -7,14 -16,27 -25,37 L 356,567 C 262,823 215,952 215,954 215,979 228,992 255,992 264,992 276,990 289,987 310,991 331,999 354,1012 L 381,999 492,748 772,1049 836,1024 860,1049 C 881,1039 901,1025 922,1006 886,937 835,863 770,784 769,783 710,716 594,584 L 774,223 C 774,196 753,168 711,139 L 727,119 C 717,90 699,76 672,76 641,76 570,178 457,381 L 164,-76 C 142,-110 111,-127 72,-127 30,-127 9,-110 8,-76 1,-67 -2,-52 -2,-32 -2,-23 -1,-13 0,-2 Z"/>
  </g>
  <g id="bullet-char-template-10004" transform="scale(0.00048828125,-0.00048828125)">
   <path d="M 285,-33 C 182,-33 111,30 74,156 52,228 41,333 41,471 41,549 55,616 82,672 116,743 169,778 240,778 293,778 328,747 346,684 L 369,508 C 377,444 397,411 428,410 L 1163,1116 C 1174,1127 1196,1133 1229,1133 1271,1133 1292,1118 1292,1087 L 1292,965 C 1292,929 1282,901 1262,881 L 442,47 C 390,-6 338,-33 285,-33 Z"/>
  </g>
  <g id="bullet-char-template-9679" transform="scale(0.00048828125,-0.00048828125)">
   <path d="M 813,0 C 632,0 489,54 383,161 276,268 223,411 223,592 223,773 276,916 383,1023 489,1130 632,1184 813,1184 992,1184 1136,1130 1245,1023 1353,916 1407,772 1407,592 1407,412 1353,268 1245,161 1136,54 992,0 813,0 Z"/>
  </g>
  <g id="bullet-char-template-8226" transform="scale(0.00048828125,-0.00048828125)">
   <path d="M 346,457 C 273,457 209,483 155,535 101,586 74,649 74,723 74,796 101,859 155,911 209,963 273,989 346,989 419,989 480,963 531,910 582,859 608,796 608,723 608,648 583,586 532,535 482,483 420,457 346,457 Z"/>
  </g>
  <g id="bullet-char-template-8211" transform="scale(0.00048828125,-0.00048828125)">
   <path d="M -4,459 L 1135,459 1135,606 -4,606 -4,459 Z"/>
  </g>
  <g id="bullet-char-template-61548" transform="scale(0.00048828125,-0.00048828125)">
   <path d="M 173,740 C 173,903 231,1043 346,1159 462,1274 601,1332 765,1332 928,1332 1067,1274 1183,1159 1299,1043 1357,903 1357,740 1357,577 1299,437 1183,322 1067,206 928,148 765,148 601,148 462,206 346,322 231,437 173,577 173,740 Z"/>
  </g>
 </defs>
 <g>
  <g id="id2" class="Master_Slide">
   <g id="bg-id2" class="Background"/>
   <g id="bo-id2" class="BackgroundObjects"/>
  </g>
 </g>
 <g class="SlideGroup">
  <g>
   <g id="container-id1">
    <g id="id1" class="Slide" clip-path="url(#presentation_clip_path)">
     <g class="Page">
      <g class="com.sun.star.drawing.CustomShape">
       <g id="id3">
        <rect class="BoundingBox" stroke="none" fill="none" x="123" y="743" width="186" height="186"/>
        <path fill="#000000" stroke="none" d="M 307,836 C 307,852 303,867 295,881 287,895 275,907 261,915 247,923 232,927 216,927 199,927 184,923 170,915 156,907 144,895 136,881 128,867 124,852 124,836 124,819 128,804 136,790 144,776 156,764 170,756 184,748 199,744 215,744 232,744 247,748 261,756 275,764 287,776 295,790 303,804 307,819 307,835 L 307,836 Z"/>
       </g>
      </g>
      <g class="com.sun.star.drawing.CustomShape">
       <g id="id4">
        <rect class="BoundingBox" stroke="none" fill="none" x="524" y="744" width="186" height="186"/>
        <path fill="#000000" stroke="none" d="M 708,837 C 708,853 704,868 696,882 688,896 676,908 662,916 648,924 633,928 617,928 600,928 585,924 571,916 557,908 545,896 537,882 529,868 525,853 525,837 525,820 529,805 537,791 545,777 557,765 571,757 585,749 600,745 617,745 633,745 648,749 662,757 676,765 688,777 696,791 704,805 708,820 708,836 L 708,837 Z"/>
       </g>
      </g>
      <g class="com.sun.star.drawing.CustomShape">
       <g id="id5">
        <rect class="BoundingBox" stroke="none" fill="none" x="918" y="745" width="186" height="186"/>
        <path fill="#000000" stroke="none" d="M 1102,838 C 1102,854 1098,869 1090,883 1082,897 1070,909 1056,917 1042,925 1027,929 1011,929 994,929 979,925 965,917 951,909 939,897 931,883 923,869 919,854 919,838 919,821 923,806 931,792 939,778 951,766 965,758 979,750 994,746 1011,746 1027,746 1042,750 1056,758 1070,766 1082,778 1090,792 1098,806 1102,821 1102,838 L 1102,838 Z"/>
       </g>
      </g>
      <g class="com.sun.star.drawing.CustomShape">
       <g id="id6">
        <rect class="BoundingBox" stroke="none" fill="none" x="1323" y="746" width="186" height="186"/>
        <path fill="#000000" stroke="none" d="M 1507,839 C 1507,855 1503,870 1495,884 1487,898 1475,910 1461,918 1447,926 1432,930 1416,930 1399,930 1384,926 1370,918 1356,910 1344,898 1336,884 1328,870 1324,855 1324,839 1324,822 1328,807 1336,793 1344,779 1356,767 1370,759 1384,751 1399,747 1416,747 1432,747 1447,751 1461,759 1475,767 1487,779 1495,793 1503,807 1507,822 1507,838 L 1507,839 Z"/>
       </g>
      </g>
      <g class="com.sun.star.drawing.CustomShape">
       <g id="id7">
        <rect class="BoundingBox" stroke="none" fill="none" x="1716" y="747" width="186" height="186"/>
        <path fill="#000000" stroke="none" d="M 1900,840 C 1900,856 1896,871 1888,885 1880,899 1868,911 1854,919 1840,927 1825,931 1809,931 1792,931 1777,927 1763,919 1749,911 1737,899 1729,885 1721,871 1717,856 1717,840 1717,823 1721,808 1729,794 1737,780 1749,768 1763,760 1777,752 1792,748 1809,748 1825,748 1840,752 1854,760 1868,768 1880,780 1888,794 1896,808 1900,823 1900,839 L 1900,840 Z"/>
       </g>
      </g>
      <g class="com.sun.star.drawing.CustomShape">
       <g id="id8">
        <rect class="BoundingBox" stroke="none" fill="none" x="313" y="1103" width="186" height="186"/>
        <path fill="#000000" stroke="none" d="M 497,1196 C 497,1212 493,1227 485,1241 477,1255 465,1267 451,1275 437,1283 422,1287 406,1287 389,1287 374,1283 360,1275 346,1267 334,1255 326,1241 318,1227 314,1212 314,1196 314,1179 318,1164 326,1150 334,1136 346,1124 360,1116 374,1108 389,1104 405,1104 422,1104 437,1108 451,1116 465,1124 477,1136 485,1150 493,1164 497,1179 497,1196 L 497,1196 Z"/>
       </g>
      </g>
      <g class="com.sun.star.drawing.CustomShape">
       <g id="id9">
        <rect class="BoundingBox" stroke="none" fill="none" x="714" y="1104" width="186" height="186"/>
        <path fill="#000000" stroke="none" d="M 898,1197 C 898,1213 894,1228 886,1242 878,1256 866,1268 852,1276 838,1284 823,1288 806,1288 790,1288 775,1284 761,1276 747,1268 735,1256 727,1242 719,1228 715,1213 715,1197 715,1180 719,1165 727,1151 735,1137 747,1125 761,1117 775,1109 790,1105 806,1105 823,1105 838,1109 852,1117 866,1125 878,1137 886,1151 894,1165 898,1180 898,1197 L 898,1197 Z"/>
        </g>
      </g>
      <g class="com.sun.star.drawing.CustomShape">
       <g id="id10">
        <rect class="BoundingBox" stroke="none" fill="none" x="1108" y="1105" width="186" height="186"/>
        <path fill="#000000" stroke="none" d="M 1292,1198 C 1292,1214 1288,1229 1280,1243 1272,1257 1260,1269 1246,1277 1232,1285 1217,1289 1201,1289 1184,1289 1169,1285 1155,1277 1141,1269 1129,1257 1121,1243 1113,1229 1109,1214 1109,1198 1109,1181 1113,1166 1121,1152 1129,1138 1141,1126 1155,1118 1169,1110 1184,1106 1201,1106 1217,1106 1232,1110 1246,1118 1260,1126 1272,1138 1280,1152 1288,1166 1292,1181 1292,1198 L 1292,1198 Z"/>
       </g>
      </g>
      <g class="com.sun.star.drawing.CustomShape">
       <g id="id11">
        <rect class="BoundingBox" stroke="none" fill="none" x="1513" y="1106" width="186" height="186"/>
        <path fill="#000000" stroke="none" d="M 1697,1199 C 1697,1215 1693,1230 1685,1244 1677,1258 1665,1270 1651,1278 1637,1286 1622,1290 1606,1290 1589,1290 1574,1286 1560,1278 1546,1270 1534,1258 1526,1244 1518,1230 1514,1215 1514,1199 1514,1182 1518,1167 1526,1153 1534,1139 1546,1127 1560,1119 1574,1111 1589,1107 1606,1107 1622,1107 1637,1111 1651,1119 1665,1127 1677,1139 1685,1153 1693,1167 1697,1182 1697,1199 L 1697,1199 Z"/>
       </g>
      </g>
     </g>
    </g>
   </g>
  </g>
 </g>
</svg>