<?xml version="1.0" encoding="UTF-8" standalone="no"?>
<!DOCTYPE svg PUBLIC "-//W3C//DTD SVG 1.1//EN" "http://www.w3.org/Graphics/SVG/1.1/DTD/svg11.dtd">
<svg width="100%" height="100%" viewBox="0 0 225 40" version="1.1" xmlns="http://www.w3.org/2000/svg" xmlns:xlink="http://www.w3.org/1999/xlink" xml:space="preserve" xmlns:serif="http://www.serif.com/" style="fill-rule:evenodd;clip-rule:evenodd;stroke-linejoin:round;stroke-miterlimit:2;">
    <g transform="matrix(1,0,0,1,0.0001,0.0002)">
        <g transform="matrix(1,0,0,1,-2,0)">
            <text x="47.172px" y="36.805px" style="font-family:'LucidaGrande', 'Lucida Grande', sans-serif;font-weight:500;font-size:12px;fill:rgb(54,74,134);">O<tspan x="55.669px 62.397px 68.258px 74.88px 80.998px 86.636px 93.183px 99.805px 103.89px 109.212px 115.072px 118.044px 123.852px 130.475px 137.202px 139.846px 142.49px 145.134px 151.68px 162.058px 167.919px 171.582px 175.668px 181.112px 184.084px 189.892px 192.536px 198.338px 202.001px 205.588px 212.135px 216.22px " y="36.805px 36.805px 36.805px 36.805px 36.805px 36.805px 36.805px 36.805px 36.805px 36.805px 36.805px 36.805px 36.805px 36.805px 36.805px 36.805px 36.805px 36.805px 36.805px 36.805px 36.805px 36.805px 36.805px 36.805px 36.805px 36.805px 36.805px 36.805px 36.805px 36.805px 36.805px 36.805px ">pen-Source Pupillometry Platform</tspan></text>
        </g>
        <g transform="matrix(0,19.3701,19.9228,0,20.2442,19.7739)">
            <ellipse cx="-0" cy="-0" rx="1" ry="1" style="fill:url(#_Radial1);"/>
        </g>
        <g transform="matrix(1,0,0,1,20.2449,39.4566)">
            <path d="M0,-39.366C-11.181,-39.366 -20.245,-30.553 -20.245,-19.683C-20.245,-8.812 -11.181,0 0,0C11.181,0 20.244,-8.812 20.244,-19.683C20.244,-30.553 11.181,-39.366 0,-39.366M0,-38.73C10.813,-38.73 19.608,-30.185 19.608,-19.683C19.608,-9.18 10.813,-0.636 0,-0.636C-10.813,-0.636 -19.609,-9.18 -19.609,-19.683C-19.609,-30.185 -10.813,-38.73 0,-38.73" style="fill:rgb(54,74,134);fill-rule:nonzero;"/>
        </g>
        <g transform="matrix(26.4067,0,0,-26.4067,11.1567,19.47)">
            <path d="M0.658,0.265C0.621,0.261 0.588,0.233 0.571,0.21L0.487,0.105L0.462,0.071C0.427,0.025 0.387,-0.016 0.344,-0.056C0.324,-0.077 0.303,-0.094 0.279,-0.105C0.254,-0.117 0.226,-0.123 0.198,-0.126C0.17,-0.13 0.14,-0.128 0.111,-0.127C0.082,-0.125 0.054,-0.12 0.024,-0.117C0.052,-0.125 0.081,-0.134 0.11,-0.14C0.14,-0.144 0.169,-0.15 0.199,-0.15C0.23,-0.15 0.261,-0.145 0.291,-0.134C0.321,-0.124 0.347,-0.103 0.369,-0.084C0.415,-0.047 0.459,-0.004 0.497,0.042C0.534,0.091 0.571,0.133 0.608,0.179C0.626,0.202 0.642,0.214 0.665,0.218C0.675,0.219 0.683,0.218 0.689,0.213C0.696,0.208 0.704,0.196 0.712,0.185C0.719,0.174 0.726,0.162 0.733,0.149L0.751,0.11L0.788,0.031C0.812,-0.023 0.835,-0.078 0.865,-0.129C0.879,-0.155 0.894,-0.181 0.91,-0.206C0.926,-0.232 0.95,-0.252 0.976,-0.265C0.926,-0.231 0.909,-0.173 0.886,-0.119C0.861,-0.066 0.843,-0.01 0.823,0.045L0.789,0.128L0.772,0.169C0.766,0.183 0.758,0.196 0.75,0.21C0.742,0.223 0.733,0.237 0.718,0.25C0.704,0.261 0.686,0.265 0.67,0.265C0.666,0.265 0.662,0.265 0.658,0.265Z" style="fill:url(#_Linear2);fill-rule:nonzero;"/>
        </g>
        <g transform="matrix(27.2726,0,0,-27.2726,8.41658,19.5095)">
            <path d="M0.633,0.256C0.623,0.253 0.618,0.251 0.609,0.246C0.592,0.237 0.581,0.227 0.57,0.216C0.548,0.194 0.531,0.17 0.513,0.146L0.462,0.078C0.429,0.032 0.392,-0.008 0.347,-0.041C0.281,-0.095 0.193,-0.094 0.104,-0.093C0.077,-0.093 0.05,-0.093 0.023,-0.094C0.052,-0.099 0.08,-0.103 0.109,-0.106C0.138,-0.109 0.166,-0.113 0.195,-0.115C0.224,-0.116 0.255,-0.116 0.285,-0.107C0.314,-0.1 0.342,-0.087 0.367,-0.071C0.419,-0.039 0.461,0.006 0.496,0.051L0.55,0.119C0.567,0.141 0.583,0.164 0.603,0.183C0.612,0.192 0.622,0.201 0.63,0.205C0.642,0.211 0.651,0.214 0.658,0.213C0.665,0.212 0.673,0.208 0.681,0.199C0.685,0.195 0.688,0.19 0.693,0.185C0.696,0.18 0.699,0.175 0.702,0.169C0.715,0.145 0.726,0.118 0.737,0.093C0.749,0.067 0.757,0.041 0.769,0.013L0.85,-0.141C0.88,-0.192 0.925,-0.234 0.977,-0.259C0.954,-0.24 0.932,-0.224 0.914,-0.201C0.896,-0.18 0.881,-0.156 0.87,-0.13C0.849,-0.079 0.825,-0.024 0.803,0.027C0.794,0.051 0.786,0.081 0.775,0.108C0.764,0.136 0.754,0.162 0.741,0.189C0.738,0.196 0.734,0.204 0.729,0.211C0.725,0.217 0.72,0.223 0.714,0.23C0.703,0.243 0.685,0.255 0.664,0.258C0.661,0.259 0.658,0.259 0.654,0.259C0.647,0.259 0.64,0.258 0.633,0.256Z" style="fill:url(#_Linear3);fill-rule:nonzero;"/>
        </g>
        <g transform="matrix(23.6953,0,0,-23.6953,8.48897,19.5091)">
            <path d="M0.574,0.293C0.543,0.288 0.518,0.273 0.498,0.257C0.477,0.24 0.46,0.222 0.444,0.204C0.379,0.13 0.332,0.045 0.27,-0.02L0.268,-0.022C0.242,-0.056 0.204,-0.08 0.162,-0.096C0.119,-0.112 0.073,-0.118 0.027,-0.128C0.074,-0.128 0.12,-0.126 0.168,-0.116C0.214,-0.107 0.26,-0.083 0.295,-0.047C0.369,0.02 0.419,0.102 0.482,0.169C0.512,0.202 0.548,0.235 0.581,0.24C0.613,0.247 0.643,0.216 0.665,0.177C0.712,0.099 0.747,0.01 0.791,-0.075C0.814,-0.118 0.836,-0.161 0.866,-0.199C0.895,-0.237 0.928,-0.276 0.973,-0.294C0.933,-0.268 0.906,-0.228 0.884,-0.188C0.861,-0.147 0.842,-0.104 0.825,-0.06C0.788,0.027 0.758,0.117 0.709,0.204C0.703,0.215 0.696,0.225 0.688,0.236C0.681,0.247 0.671,0.257 0.66,0.266C0.65,0.276 0.636,0.283 0.621,0.289C0.61,0.292 0.599,0.294 0.588,0.294C0.583,0.294 0.578,0.294 0.574,0.293Z" style="fill:url(#_Linear4);fill-rule:nonzero;"/>
        </g>
        <g transform="matrix(23.4486,0,0,-23.4486,2.92574,19.8058)">
            <path d="M0.349,0.292C0.32,0.285 0.294,0.272 0.27,0.258C0.174,0.201 0.098,0.124 0.027,0.043C0.112,0.108 0.197,0.175 0.289,0.221C0.335,0.242 0.385,0.258 0.425,0.243C0.466,0.23 0.498,0.189 0.525,0.146C0.553,0.102 0.577,0.055 0.605,0.008C0.634,-0.038 0.664,-0.084 0.7,-0.125C0.736,-0.167 0.778,-0.204 0.824,-0.233C0.871,-0.262 0.921,-0.285 0.973,-0.298C0.876,-0.251 0.795,-0.182 0.733,-0.099C0.671,-0.015 0.628,0.081 0.57,0.175C0.556,0.198 0.539,0.221 0.518,0.242C0.498,0.264 0.472,0.283 0.441,0.292C0.426,0.296 0.411,0.298 0.395,0.298C0.379,0.298 0.363,0.296 0.349,0.292Z" style="fill:url(#_Linear5);fill-rule:nonzero;"/>
        </g>
        <g transform="matrix(1,0,0,1,50.8357,16.9068)">
            <path d="M0,-13.2L0,-6.912L1.152,-6.912C2.432,-6.912 3.432,-7.208 4.152,-7.801C4.872,-8.392 5.232,-9.136 5.232,-10.032C5.232,-11.152 4.864,-11.96 4.128,-12.456C3.392,-12.952 2.352,-13.2 1.008,-13.2L0,-13.2ZM-5.664,1.32L-5.664,0.936L-3.624,-0.049L-3.624,-13.152L-5.664,-14.137L-5.664,-14.52L2.64,-14.52C4.527,-14.52 6.044,-14.18 7.188,-13.5C8.332,-12.82 8.904,-11.736 8.904,-10.248C8.904,-9.352 8.604,-8.564 8.004,-7.885C7.404,-7.204 6.592,-6.676 5.568,-6.301C4.544,-5.924 3.376,-5.736 2.064,-5.736L0,-5.736L0,-0.049L2.448,0.936L2.448,1.32L-5.664,1.32Z" style="fill:rgb(54,74,134);fill-rule:nonzero;"/>
        </g>
        <g transform="matrix(1,0,0,1,65.7634,7.2826)">
            <path d="M0,11.184C-0.96,11.184 -1.748,10.936 -2.363,10.44C-2.979,9.945 -3.288,9.208 -3.288,8.232L-3.288,1.152L-4.872,0.384L-4.872,0L0.097,0L0.097,7.248C0.097,7.808 0.256,8.236 0.576,8.532C0.896,8.829 1.304,8.976 1.801,8.976C2.104,8.976 2.424,8.92 2.761,8.808C3.097,8.697 3.385,8.544 3.624,8.352L3.624,1.152L2.185,0.384L2.185,0L7.009,0L7.009,9.816L8.521,10.56L8.521,10.944L3.624,10.944L3.624,9.408L3.528,9.408C2.968,9.968 2.424,10.404 1.896,10.716C1.368,11.028 0.736,11.184 0,11.184" style="fill:rgb(54,74,134);fill-rule:nonzero;"/>
        </g>
        <g transform="matrix(1,0,0,1,82.0115,21.7786)">
            <path d="M0,-12.768C-0.288,-12.768 -0.557,-12.728 -0.804,-12.648C-1.053,-12.568 -1.32,-12.448 -1.608,-12.288L-1.608,-5.352C-1.145,-4.824 -0.513,-4.56 0.288,-4.56C0.672,-4.56 1.044,-4.68 1.404,-4.92C1.764,-5.16 2.06,-5.583 2.292,-6.192C2.523,-6.8 2.64,-7.664 2.64,-8.784C2.64,-10.16 2.368,-11.167 1.824,-11.808C1.28,-12.448 0.672,-12.768 0,-12.768M-6.576,1.968L-6.576,1.585L-4.968,0.816L-4.968,-11.856L-6.504,-12.984L-6.504,-13.272L-2.136,-14.736L-1.848,-14.736L-1.656,-13.272L-1.512,-13.272C-0.92,-13.784 -0.348,-14.156 0.204,-14.388C0.756,-14.62 1.352,-14.736 1.992,-14.736C2.696,-14.736 3.355,-14.524 3.972,-14.1C4.588,-13.676 5.08,-13.072 5.448,-12.288C5.815,-11.503 6,-10.568 6,-9.48C6,-8.2 5.744,-7.1 5.231,-6.18C4.72,-5.259 4.04,-4.551 3.192,-4.056C2.344,-3.56 1.424,-3.312 0.432,-3.312C0.063,-3.312 -0.292,-3.329 -0.636,-3.36C-0.98,-3.392 -1.305,-3.455 -1.608,-3.552L-1.608,0.816L0.264,1.585L0.264,1.968L-6.576,1.968Z" style="fill:rgb(54,74,134);fill-rule:nonzero;"/>
        </g>
        <g transform="matrix(1,0,0,1,89.6189,7.0424)">
            <path d="M0,11.184L0,10.8L1.608,10.033L1.608,2.736L0.072,1.608L0.072,1.321L4.704,0L4.992,0L4.992,10.033L6.408,10.8L6.408,11.184L0,11.184Z" style="fill:rgb(54,74,134);fill-rule:nonzero;"/>
        </g>
        <g transform="matrix(1,0,0,1,97.5144,0.2264)">
            <path d="M0,18L0,17.616L1.608,16.849L1.608,2.736L0.072,1.608L0.072,1.32L4.704,0L4.992,0L4.992,16.849L6.408,17.616L6.408,18L0,18Z" style="fill:rgb(54,74,134);fill-rule:nonzero;"/>
        </g>
        <g transform="matrix(1,0,0,1,105.699,2.3864)">
            <path d="M0,15.84L0,15.456L2.04,14.472L2.04,1.368L0,0.384L0,0L13.08,0L13.08,4.152L12.695,4.152L10.92,1.32L5.664,1.32L5.664,7.008L9.359,7.008L10.703,4.944L11.088,4.944L11.088,10.344L10.703,10.344L9.359,8.328L5.664,8.328L5.664,14.521L11.495,14.521L13.367,10.944L13.752,10.944L13.752,15.84L0,15.84Z" style="fill:rgb(54,74,134);fill-rule:nonzero;"/>
        </g>
        <g transform="matrix(1,0,0,1,121.467,2.3864)">
            <path d="M0,15.84L0,15.456L1.896,14.496L6.889,8.376L1.872,1.273L0.288,0.384L0.288,0L8.208,0L8.208,0.384L6.312,1.32L6.312,1.441L9.576,5.952L13.176,1.441L13.176,1.344L11.305,0.384L11.305,0L16.944,0L16.944,0.384L15.336,1.224L10.44,7.152L15.769,14.496L17.473,15.456L17.473,15.84L9.433,15.84L9.433,15.456L11.16,14.544L11.16,14.448L7.752,9.6L3.889,14.424L3.84,14.521L5.76,15.456L5.76,15.84L0,15.84Z" style="fill:rgb(54,74,134);fill-rule:nonzero;"/>
        </g>
        <g transform="matrix(1,0,0,1,143.619,2.3864)">
            <path d="M0,15.84L0,15.456L2.544,14.472L2.544,1.32L-0.888,1.32L-2.808,5.28L-3.192,5.28L-3.192,0L11.904,0L11.904,5.28L11.521,5.28L9.6,1.32L6.168,1.32L6.168,14.472L8.712,15.456L8.712,15.84L0,15.84Z" style="fill:rgb(54,74,134);fill-rule:nonzero;"/>
        </g>
        <g transform="matrix(0,-1,-1,0,92.823,-0.0002)">
            <path d="M-2.124,-2.124C-3.297,-2.124 -4.248,-1.174 -4.248,0C-4.248,1.173 -3.297,2.124 -2.124,2.124C-0.951,2.124 0,1.173 0,0C0,-1.174 -0.951,-2.124 -2.124,-2.124" style="fill:rgb(237,28,36);fill-rule:nonzero;"/>
        </g>
    </g>
    <defs>
        <radialGradient id="_Radial1" cx="0" cy="0" r="1" gradientUnits="userSpaceOnUse" gradientTransform="matrix(0,1,1,0,-7.01209e-06,7.01209e-06)"><stop offset="0" style="stop-color:white;stop-opacity:1"/><stop offset="0.69" style="stop-color:rgb(224,227,236);stop-opacity:1"/><stop offset="0.88" style="stop-color:rgb(152,162,193);stop-opacity:1"/><stop offset="1" style="stop-color:rgb(54,74,134);stop-opacity:1"/></radialGradient>
        <linearGradient id="_Linear2" x1="0" y1="0" x2="1" y2="0" gradientUnits="userSpaceOnUse" gradientTransform="matrix(1,0,0,-1,0,-3.46958e-05)"><stop offset="0" style="stop-color:rgb(54,74,134);stop-opacity:1"/><stop offset="0.56" style="stop-color:rgb(193,39,45);stop-opacity:1"/><stop offset="1" style="stop-color:rgb(54,74,134);stop-opacity:1"/></linearGradient>
        <linearGradient id="_Linear3" x1="0" y1="0" x2="1" y2="0" gradientUnits="userSpaceOnUse" gradientTransform="matrix(1,0,0,-1,0,3.70481e-05)"><stop offset="0" style="stop-color:rgb(54,74,134);stop-opacity:1"/><stop offset="0.56" style="stop-color:rgb(57,181,74);stop-opacity:1"/><stop offset="1" style="stop-color:rgb(54,74,134);stop-opacity:1"/></linearGradient>
        <linearGradient id="_Linear4" x1="0" y1="0" x2="1" y2="0" gradientUnits="userSpaceOnUse" gradientTransform="matrix(1,0,0,-1,0,-3.702e-05)"><stop offset="0" style="stop-color:rgb(54,74,134);stop-opacity:1"/><stop offset="0.56" style="stop-color:black;stop-opacity:1"/><stop offset="1" style="stop-color:rgb(54,74,134);stop-opacity:1"/></linearGradient>
        <linearGradient id="_Linear5" x1="0" y1="0" x2="1" y2="0" gradientUnits="userSpaceOnUse" gradientTransform="matrix(1,0,0,-1,0,-1.94554e-05)"><stop offset="0" style="stop-color:rgb(54,74,134);stop-opacity:1"/><stop offset="0.56" style="stop-color:rgb(41,171,226);stop-opacity:1"/><stop offset="1" style="stop-color:rgb(54,74,134);stop-opacity:1"/></linearGradient>
    </defs>
</svg>
